HIERARCHY
ROOT Hips
{
  OFFSET -190.123 93.1294 404.684
  CHANNELS 6 Xposition Yposition Zposition Zrotation Xrotation Yrotation
  JOINT Spine
  {
    OFFSET 0 8 0
    CHANNELS 6 Xposition Yposition Zposition Zrotation Xrotation Yrotation
    JOINT Spine1
    {
      OFFSET 0 8 0
      CHANNELS 6 Xposition Yposition Zposition Zrotation Xrotation Yrotation
      JOINT Spine2
      {
        OFFSET 0 8 0
        CHANNELS 6 Xposition Yposition Zposition Zrotation Xrotation Yrotation
        JOINT Spine3
        {
          OFFSET 0 8 0
          CHANNELS 6 Xposition Yposition Zposition Zrotation Xrotation Yrotation
          JOINT Neck
          {
            OFFSET 0 17 0
            CHANNELS 6 Xposition Yposition Zposition Zrotation Xrotation Yrotation
            JOINT Head
            {
              OFFSET 0 10.8 0
              CHANNELS 6 Xposition Yposition Zposition Zrotation Xrotation Yrotation
              End Site
              {
                OFFSET 0 20.25 0
              }
            }
          }
          JOINT LeftShoulder
          {
            OFFSET 5 17 0
            CHANNELS 6 Xposition Yposition Zposition Zrotation Xrotation Yrotation
            JOINT LeftShoulder2
            {
              OFFSET 6.45 0 0
              CHANNELS 6 Xposition Yposition Zposition Zrotation Xrotation Yrotation
              JOINT LeftArm
              {
                OFFSET 6.45 0 0
                CHANNELS 6 Xposition Yposition Zposition Zrotation Xrotation Yrotation
                JOINT LeftForeArm
                {
                  OFFSET 0 -32.4 -2
                  CHANNELS 6 Xposition Yposition Zposition Zrotation Xrotation Yrotation
                  JOINT LeftHand
                  {
                    OFFSET 0 -25.65 2
                    CHANNELS 6 Xposition Yposition Zposition Zrotation Xrotation Yrotation
                    JOINT LeftHandThumb1
                    {
                      OFFSET -0.5 -1.5 2.65
                      CHANNELS 6 Xposition Yposition Zposition Zrotation Xrotation Yrotation
                      JOINT LeftHandThumb2
                      {
                        OFFSET 0 -3.8 3.7
                        CHANNELS 6 Xposition Yposition Zposition Zrotation Xrotation Yrotation
                        JOINT LeftHandThumb3
                        {
                          OFFSET 0 -3 2.7
                          CHANNELS 6 Xposition Yposition Zposition Zrotation Xrotation Yrotation
                          End Site
                          {
                            OFFSET 0 -2.3 1.8
                          }
                        }
                      }
                    }
                    JOINT LeftHandIndex
                    {
                      OFFSET 0 -1.9 1.6
                      CHANNELS 6 Xposition Yposition Zposition Zrotation Xrotation Yrotation
                      JOINT LeftHandIndex1
                      {
                        OFFSET 0 -8.3 1.9
                        CHANNELS 6 Xposition Yposition Zposition Zrotation Xrotation Yrotation
                        JOINT LeftHandIndex2
                        {
                          OFFSET 0 -4.5 0
                          CHANNELS 6 Xposition Yposition Zposition Zrotation Xrotation Yrotation
                          JOINT LeftHandIndex3
                          {
                            OFFSET 0 -3.4 0
                            CHANNELS 6 Xposition Yposition Zposition Zrotation Xrotation Yrotation
                            End Site
                            {
                              OFFSET 0 -2.6 0
                            }
                          }
                        }
                      }
                    }
                    JOINT LeftHandMiddle
                    {
                      OFFSET -0.25 -2.2 0.4
                      CHANNELS 6 Xposition Yposition Zposition Zrotation Xrotation Yrotation
                      JOINT LeftHandMiddle1
                      {
                        OFFSET 0 -8.3 1
                        CHANNELS 6 Xposition Yposition Zposition Zrotation Xrotation Yrotation
                        JOINT LeftHandMiddle2
                        {
                          OFFSET 0 -4.65 0
                          CHANNELS 6 Xposition Yposition Zposition Zrotation Xrotation Yrotation
                          JOINT LeftHandMiddle3
                          {
                            OFFSET 0 -3.3 0
                            CHANNELS 6 Xposition Yposition Zposition Zrotation Xrotation Yrotation
                            End Site
                            {
                              OFFSET 0 -2.7 0
                            }
                          }
                        }
                      }
                    }
                    JOINT LeftHandRing
                    {
                      OFFSET -0.5 -2.15 -0.8
                      CHANNELS 6 Xposition Yposition Zposition Zrotation Xrotation Yrotation
                      JOINT LeftHandRing1
                      {
                        OFFSET 0 -7.75 -0.2
                        CHANNELS 6 Xposition Yposition Zposition Zrotation Xrotation Yrotation
                        JOINT LeftHandRing2
                        {
                          OFFSET 0 -3.8 0
                          CHANNELS 6 Xposition Yposition Zposition Zrotation Xrotation Yrotation
                          JOINT LeftHandRing3
                          {
                            OFFSET 0 -3.4 0
                            CHANNELS 6 Xposition Yposition Zposition Zrotation Xrotation Yrotation
                            End Site
                            {
                              OFFSET 0 -2.6 0
                            }
                          }
                        }
                      }
                    }
                    JOINT LeftHandPinky
                    {
                      OFFSET -0.75 -1.75 -1.85
                      CHANNELS 6 Xposition Yposition Zposition Zrotation Xrotation Yrotation
                      JOINT LeftHandPinky1
                      {
                        OFFSET 0 -7.15 -1
                        CHANNELS 6 Xposition Yposition Zposition Zrotation Xrotation Yrotation
                        JOINT LeftHandPinky2
                        {
                          OFFSET 0 -3 0
                          CHANNELS 6 Xposition Yposition Zposition Zrotation Xrotation Yrotation
                          JOINT LeftHandPinky3
                          {
                            OFFSET 0 -2.35 0
                            CHANNELS 6 Xposition Yposition Zposition Zrotation Xrotation Yrotation
                            End Site
                            {
                              OFFSET 0 -2.1 0
                            }
                          }
                        }
                      }
                    }
                  }
                }
              }
            }
          }
          JOINT RightShoulder
          {
            OFFSET -5 17 0
            CHANNELS 6 Xposition Yposition Zposition Zrotation Xrotation Yrotation
            JOINT RightShoulder2
            {
              OFFSET -6.45 0 0
              CHANNELS 6 Xposition Yposition Zposition Zrotation Xrotation Yrotation
              JOINT RightArm
              {
                OFFSET -6.45 0 0
                CHANNELS 6 Xposition Yposition Zposition Zrotation Xrotation Yrotation
                JOINT RightForeArm
                {
                  OFFSET 0 -32.4 -2
                  CHANNELS 6 Xposition Yposition Zposition Zrotation Xrotation Yrotation
                  JOINT RightHand
                  {
                    OFFSET 0 -25.65 2
                    CHANNELS 6 Xposition Yposition Zposition Zrotation Xrotation Yrotation
                    JOINT RightHandThumb1
                    {
                      OFFSET 0.5 -1.5 2.65
                      CHANNELS 6 Xposition Yposition Zposition Zrotation Xrotation Yrotation
                      JOINT RightHandThumb2
                      {
                        OFFSET 0 -3.8 3.7
                        CHANNELS 6 Xposition Yposition Zposition Zrotation Xrotation Yrotation
                        JOINT RightHandThumb3
                        {
                          OFFSET 0 -3 2.7
                          CHANNELS 6 Xposition Yposition Zposition Zrotation Xrotation Yrotation
                          End Site
                          {
                            OFFSET 0 -2.3 1.8
                          }
                        }
                      }
                    }
                    JOINT RightHandIndex
                    {
                      OFFSET 0 -1.9 1.6
                      CHANNELS 6 Xposition Yposition Zposition Zrotation Xrotation Yrotation
                      JOINT RightHandIndex1
                      {
                        OFFSET 0 -8.3 1.9
                        CHANNELS 6 Xposition Yposition Zposition Zrotation Xrotation Yrotation
                        JOINT RightHandIndex2
                        {
                          OFFSET 0 -4.5 0
                          CHANNELS 6 Xposition Yposition Zposition Zrotation Xrotation Yrotation
                          JOINT RightHandIndex3
                          {
                            OFFSET 0 -3.4 0
                            CHANNELS 6 Xposition Yposition Zposition Zrotation Xrotation Yrotation
                            End Site
                            {
                              OFFSET 0 -2.6 0
                            }
                          }
                        }
                      }
                    }
                    JOINT RightHandMiddle
                    {
                      OFFSET 0.25 -2.2 0.4
                      CHANNELS 6 Xposition Yposition Zposition Zrotation Xrotation Yrotation
                      JOINT RightHandMiddle1
                      {
                        OFFSET 0 -8.3 1
                        CHANNELS 6 Xposition Yposition Zposition Zrotation Xrotation Yrotation
                        JOINT RightHandMiddle2
                        {
                          OFFSET 0 -4.65 0
                          CHANNELS 6 Xposition Yposition Zposition Zrotation Xrotation Yrotation
                          JOINT RightHandMiddle3
                          {
                            OFFSET 0 -3.3 0
                            CHANNELS 6 Xposition Yposition Zposition Zrotation Xrotation Yrotation
                            End Site
                            {
                              OFFSET 0 -2.7 0
                            }
                          }
                        }
                      }
                    }
                    JOINT RightHandRing
                    {
                      OFFSET 0.5 -2.15 -0.8
                      CHANNELS 6 Xposition Yposition Zposition Zrotation Xrotation Yrotation
                      JOINT RightHandRing1
                      {
                        OFFSET 0 -7.75 -0.2
                        CHANNELS 6 Xposition Yposition Zposition Zrotation Xrotation Yrotation
                        JOINT RightHandRing2
                        {
                          OFFSET 0 -3.8 0
                          CHANNELS 6 Xposition Yposition Zposition Zrotation Xrotation Yrotation
                          JOINT RightHandRing3
                          {
                            OFFSET 0 -3.4 0
                            CHANNELS 6 Xposition Yposition Zposition Zrotation Xrotation Yrotation
                            End Site
                            {
                              OFFSET 0 -2.6 0
                            }
                          }
                        }
                      }
                    }
                    JOINT RightHandPinky
                    {
                      OFFSET 0.75 -1.75 -1.85
                      CHANNELS 6 Xposition Yposition Zposition Zrotation Xrotation Yrotation
                      JOINT RightHandPinky1
                      {
                        OFFSET 0 -7.15 -1
                        CHANNELS 6 Xposition Yposition Zposition Zrotation Xrotation Yrotation
                        JOINT RightHandPinky2
                        {
                          OFFSET 0 -3 0
                          CHANNELS 6 Xposition Yposition Zposition Zrotation Xrotation Yrotation
                          JOINT RightHandPinky3
                          {
                            OFFSET 0 -2.35 0
                            CHANNELS 6 Xposition Yposition Zposition Zrotation Xrotation Yrotation
                            End Site
                            {
                              OFFSET 0 -2.1 0
                            }
                          }
                        }
                      }
                    }
                  }
                }
              }
            }
          }
        }
      }
    }
  }
  JOINT LeftUpLeg
  {
    OFFSET 8 0 0
    CHANNELS 6 Xposition Yposition Zposition Zrotation Xrotation Yrotation
    JOINT LeftLeg
    {
      OFFSET 0 -45 -1
      CHANNELS 6 Xposition Yposition Zposition Zrotation Xrotation Yrotation
      JOINT LeftFoot
      {
        OFFSET 0 -41 -2
        CHANNELS 6 Xposition Yposition Zposition Zrotation Xrotation Yrotation
        JOINT LeftToeBase
        {
          OFFSET 0 -7.5 12.5
          CHANNELS 6 Xposition Yposition Zposition Zrotation Xrotation Yrotation
          JOINT LeftFootToe
          {
            OFFSET 0 0 4
            CHANNELS 6 Xposition Yposition Zposition Zrotation Xrotation Yrotation
            End Site
            {
              OFFSET 0 0 0
            }
          }
        }
      }
    }
  }
  JOINT RightUpLeg
  {
    OFFSET -8 0 0
    CHANNELS 6 Xposition Yposition Zposition Zrotation Xrotation Yrotation
    JOINT RightLeg
    {
      OFFSET 0 -45 -1
      CHANNELS 6 Xposition Yposition Zposition Zrotation Xrotation Yrotation
      JOINT RightFoot
      {
        OFFSET 0 -41 -2
        CHANNELS 6 Xposition Yposition Zposition Zrotation Xrotation Yrotation
        JOINT RightToeBase
        {
          OFFSET 0 -7.5 12.5
          CHANNELS 6 Xposition Yposition Zposition Zrotation Xrotation Yrotation
          JOINT RightFootToe
          {
            OFFSET 0 0 4
            CHANNELS 6 Xposition Yposition Zposition Zrotation Xrotation Yrotation
            End Site
            {
              OFFSET 0 0 0
            }
          }
        }
      }
    }
  }
}
MOTION
Frames:	3
Frame Time:	0.0111111
-218.428 93.0801 416.241 0.0548745 -0.249856 80.1109 0 8 2.84217e-14 1.63245 -1.15131 2.17868 5.68434e-14 8 2.84217e-14 -0.0859209 1.16527 18.5645 5.68434e-14 8 0 0.00590279 0.58971 9.34278 0 8 -5.68434e-14 0.0090857 0.582189 9.2199 0 17 -5.68434e-14 8.59256 6.49447 -5.52856 -5.68434e-14 10.8 0 7.33477 11.8507 -13.1711 5 17 0 -1.71643 3.1859 -43.763 6.45 -2.84217e-14 0 1.0296 0.311781 -0.980049 6.45 1.42109e-14 0 9.27706 -17.6518 19.8406 -5.68434e-14 -32.4 -2 -64.4295 -42.6585 -10.1074 0 -25.65 2 16.0234 -1.31832 16.1369 -0.5 -1.5 2.65 -11.9199 -13.7559 -11.0551 0 -3.8 3.7 -0.040107 -0.269791 0.00657881 0 -3 2.7 -0.00201278 34.0658 0.00317043 5.68434e-14 -1.9 1.6 -4.06267e-05 4.33781e-06 1.09511e-06 -5.68434e-14 -8.3 1.9 -0.431901 5.59719 0.032774 0 -4.5 0 -4.77197 -0.091469 -0.00234727 0 -3.4 0 -4.46331 -0.0169617 0.00726092 -0.25 -2.2 0.4 -4.06267e-05 4.33781e-06 1.09511e-06 -5.68434e-14 -8.3 1 -26.2708 17.7687 5.05908 5.68434e-14 -4.65 0 -12.5732 -0.00362569 0.00176005 5.68434e-14 -3.3 0 -10.7517 0.0021846 -0.0147455 -0.5 -2.15 -0.8 -4.06267e-05 4.33781e-06 1.09511e-06 -5.68434e-14 -7.75 -0.2 -53.9954 0.940218 3.39665 0 -3.8 0 -0.351398 7.04906e-05 -0.0393618 0 -3.4 -5.68434e-14 -0.317712 -4.62922e-05 -0.0407638 -0.75 -1.75 -1.85 -4.06267e-05 4.33781e-06 1.09511e-06 5.68434e-14 -7.15 -1 -72.4316 2.33487 8.71373 2.84217e-14 -3 -5.68434e-14 -0.00121864 -0.158697 -0.184016 2.84217e-14 -2.35 5.68434e-14 -0.000489598 -0.154634 -0.181703 -5 17 0 6.52106 1.21643 -43.813 -6.45 0 1.42109e-14 -2.12265 0.615732 -0.482774 -6.45 0 -4.26326e-14 -5.13062 -44.2813 -4.23318 5.68434e-14 -32.4 -2 154.229 -37.0073 165.036 -5.68434e-14 -25.65 2 11.2014 -7.06622 -8.05065 0.5 -1.5 2.65 8.93271 -8.0523 5.1151 5.68434e-14 -3.8 3.7 1.30165 30.4694 -0.407299 5.68434e-14 -3 2.7 0.129711 11.6465 -0.092608 0 -1.9 1.6 -1.82587e-06 5.12093e-05 -3.91022e-05 0 -8.3 1.9 1.08242 5.30171 -0.077403 0 -4.5 0 31.7023 0.0105459 -0.0245562 0 -3.4 0 23.1072 -0.000559842 0.0135602 0.25 -2.2 0.4 -1.82587e-06 5.12093e-05 -3.91022e-05 0 -8.3 1 8.64319 4.48545 -0.610492 0 -4.65 2.84217e-14 6.13553 -0.0130538 0.00738906 0 -3.3 0 5.64792 -0.00751654 0.00663671 0.5 -2.15 -0.8 -1.82587e-06 5.12093e-05 -3.91022e-05 -5.68434e-14 -7.75 -0.2 22.4509 0.871807 -0.957516 0 -3.8 0 0.000181421 -0.00671387 0.00160929 0 -3.4 0 2.69583e-05 -0.00252697 0.00743025 0.75 -1.75 -1.85 -1.82587e-06 5.12093e-05 -3.91022e-05 -5.68434e-14 -7.15 -1 28.5329 -1.86957 -0.625505 0 -3 -2.84217e-14 -0.00427376 -0.0212743 0.000848392 5.68434e-14 -2.35 2.84217e-14 -0.00422555 -0.0143878 -0.0023687 8 2.84217e-14 -2.84217e-14 9.0173 -1.66915 100.677 -2.84217e-14 -45 -1 -2.92481 1.57037 -58.2127 0 -41 -2 -3.69997 8.76737 -45.0156 -5.68434e-14 -7.5 12.5 -2.47452e-06 4.27259e-06 -2.80881e-05 5.68434e-14 -8.88178e-16 4 4.20073 -6.24714 45.3236 -8 -1.42109e-14 2.84217e-14 4.02968 -3.15399 -8.95961 5.68434e-14 -45 -1 -0.00427874 5.53009 0.859985 0 -41 -2 -4.29937 -2.82046 3.67961 -5.68434e-14 -7.5 12.5 3.22909e-05 -0.0116482 -0.000923338 -5.68434e-14 0 4 4.90433 1.20427 21.5339 
-218.392 93.0761 416.217 0.048237 -0.276144 80.1223 0 8 0 1.64866 -1.14372 2.17904 0 8 0 -0.0837404 1.15769 18.57 0 8 0 0.00621989 0.58604 9.34543 0 8 0 0.00947141 0.578264 9.22236 2.84217e-14 17 0 8.59565 6.47875 -5.51981 -5.68434e-14 10.8 5.68434e-14 7.35214 11.8088 -13.1485 5 17 0 -1.71271 3.17963 -43.7549 6.45 1.42109e-14 -1.42109e-14 1.02932 0.312519 -0.979809 6.45 4.26326e-14 -1.42109e-14 9.24657 -17.6796 19.736 0 -32.4 -2 -64.3976 -42.7989 -10.1965 0 -25.65 2 16.3737 -1.33133 16.037 -0.5 -1.5 2.65 -11.9612 -13.6997 -11.1383 5.68434e-14 -3.8 3.7 -0.040196 -0.269959 0.00648782 -5.68434e-14 -3 2.7 -0.00272347 34.0267 0.0032911 0 -1.9 1.6 -4.06267e-05 4.33781e-06 1.09511e-06 -5.68434e-14 -8.3 1.9 -0.426123 5.55599 0.0320291 5.68434e-14 -4.5 0 -5.16293 -0.0899232 -0.00206017 0 -3.4 0 -4.80752 -0.0170951 0.00748036 -0.25 -2.2 0.4 -4.06267e-05 4.33781e-06 1.09511e-06 0 -8.3 1 -26.6478 17.8648 5.14924 2.84217e-14 -4.65 0 -12.5341 -0.00378654 0.0021991 2.84217e-14 -3.3 0 -10.723 0.00242992 -0.014849 -0.5 -2.15 -0.8 -4.06267e-05 4.33781e-06 1.09511e-06 0 -7.75 -0.2 -54.1375 0.909755 3.38346 2.84217e-14 -3.8 5.68434e-14 -0.430167 7.04597e-05 -0.0384431 2.84217e-14 -3.4 -5.68434e-14 -0.395821 -4.63004e-05 -0.0397982 -0.75 -1.75 -1.85 -4.06267e-05 4.33781e-06 1.09511e-06 0 -7.15 -1 -72.4362 2.32717 8.70926 0 -3 0 -0.00121445 -0.157959 -0.182896 2.84217e-14 -2.35 0 -0.000483705 -0.153709 -0.180598 -5 17 0 6.518 1.2062 -43.7225 -6.45 0 0 -2.11021 0.615898 -0.481632 -6.45 -2.84217e-14 -4.26326e-14 -5.31029 -44.3132 -4.38325 5.68434e-14 -32.4 -2 154.38 -36.951 165.385 -5.68434e-14 -25.65 2 11.0873 -7.35764 -7.94078 0.5 -1.5 2.65 9.35978 -7.2438 5.23109 0 -3.8 3.7 1.30726 30.8183 -0.404031 0 -3 2.7 0.140414 10.475 -0.101701 -5.68434e-14 -1.9 1.6 -1.82587e-06 5.12093e-05 -3.91022e-05 0 -8.3 1.9 1.46931 5.8035 -0.0984449 5.68434e-14 -4.5 -1.42109e-14 32.6391 0.0156002 -0.0186614 -5.68434e-14 -3.4 4.26326e-14 23.6677 0.00474608 0.0137706 0.25 -2.2 0.4 -1.82587e-06 5.12093e-05 -3.91022e-05 0 -8.3 1 9.7448 5.20535 -0.741018 -1.13687e-13 -4.65 0 6.02104 -0.013295 0.0103445 -5.68434e-14 -3.3 -1.42109e-14 5.54827 -0.00703097 0.010059 0.5 -2.15 -0.8 -1.82587e-06 5.12093e-05 -3.91022e-05 5.68434e-14 -7.75 -0.2 24.5837 1.30214 -1.1701 0 -3.8 -2.84217e-14 0.000174216 -0.00689513 0.0016521 0 -3.4 -2.84217e-14 2.71542e-05 -0.00233096 0.00777085 0.75 -1.75 -1.85 -1.82587e-06 5.12093e-05 -3.91022e-05 0 -7.15 -1 31.0046 -1.9268 -0.735989 5.68434e-14 -3 2.84217e-14 3.52858e-05 -0.0202612 0.000853296 0 -2.35 0 4.14604e-05 -0.0144659 -0.0024324 8 1.42109e-14 0 9.06334 -1.64563 100.677 5.68434e-14 -45 -1 -2.9242 1.65951 -58.2133 0 -41 -2 -3.65575 8.71358 -45.0063 -5.68434e-14 -7.5 12.5 -2.47452e-06 4.28155e-06 -2.80881e-05 0 -8.88178e-16 4 4.18231 -6.23495 45.3223 -8 0 5.68434e-14 4.03026 -3.14606 -8.97811 0 -45 -1 -0.00437999 5.5542 0.865595 0 -41 -2 -4.27319 -2.85645 3.71266 0 -7.5 12.5 3.23786e-05 -0.00620919 -0.000923338 0 0 4 4.86467 1.24619 21.534 
-218.358 93.0725 416.196 0.0419379 -0.30041 80.1362 5.68434e-14 8 0 1.66293 -1.13471 2.17926 -5.68434e-14 8 2.84217e-14 -0.0813855 1.14967 18.5748 5.68434e-14 8 0 0.00662006 0.581878 9.34798 0 8 -5.68434e-14 0.0098825 0.574194 9.22469 0 17 0 8.5977 6.46384 -5.50807 0 10.8 -5.68434e-14 7.36622 11.7676 -13.1185 5 17 0 -1.70545 3.17808 -43.7462 6.45 1.42109e-14 0 1.02909 0.313258 -0.979513 6.45 1.42109e-14 -1.42109e-14 9.20587 -17.7041 19.6288 -5.68434e-14 -32.4 -2 -64.3508 -42.9592 -10.2729 0 -25.65 2 16.6877 -1.31389 15.939 -0.5 -1.5 2.65 -12.0053 -13.6442 -11.2182 0 -3.8 3.7 -0.0402838 -0.270135 0.00639243 -5.68434e-14 -3 2.7 -0.00391997 33.9654 0.00340075 -5.68434e-14 -1.9 1.6 -4.06267e-05 4.33781e-06 1.09511e-06 0 -8.3 1.9 -0.420855 5.51925 0.0312755 0 -4.5 0 -5.49339 -0.0883689 -0.00178672 0 -3.4 0 -5.09466 -0.0172232 0.00769885 -0.25 -2.2 0.4 -4.06267e-05 4.33781e-06 1.09511e-06 5.68434e-14 -8.3 1 -27.0002 17.9678 5.23701 0 -4.65 0 -12.4961 -0.00394618 0.00258311 5.68434e-14 -3.3 -5.68434e-14 -10.6951 0.00267074 -0.0149281 -0.5 -2.15 -0.8 -4.06267e-05 4.33781e-06 1.09511e-06 0 -7.75 -0.2 -54.2668 0.868662 3.3636 2.84217e-14 -3.8 0 -0.539772 7.04286e-05 -0.0375236 2.84217e-14 -3.4 0 -0.504026 -4.63085e-05 -0.0388318 -0.75 -1.75 -1.85 -4.06267e-05 4.33781e-06 1.09511e-06 5.68434e-14 -7.15 -1 -72.4223 2.31719 8.69786 2.84217e-14 -3 0 -0.00121028 -0.157219 -0.181772 5.68434e-14 -2.35 5.68434e-14 -0.000477833 -0.152784 -0.179488 -5 17 -5.68434e-14 6.51898 1.19458 -43.6209 -6.45 0 0 -2.09879 0.616072 -0.480579 -6.45 2.84217e-14 0 -5.4665 -44.3321 -4.51899 5.68434e-14 -32.4 -2 154.535 -36.899 165.754 0 -25.65 2 10.949 -7.59033 -7.73561 0.5 -1.5 2.65 9.90914 -6.34044 5.36988 0 -3.8 3.7 1.31426 31.0144 -0.40205 0 -3 2.7 0.136568 9.25782 -0.1101 -5.68434e-14 -1.9 1.6 -1.82587e-06 5.12093e-05 -3.91022e-05 0 -8.3 1.9 1.93858 6.18173 -0.125396 -5.68434e-14 -4.5 0 33.5509 0.0153222 -0.0108707 5.68434e-14 -3.4 -1.42109e-14 24.2133 0.0067114 0.0139341 0.25 -2.2 0.4 -1.82587e-06 5.12093e-05 -3.91022e-05 0 -8.3 1 10.8322 5.90235 -0.877512 0 -4.65 -1.42109e-14 5.75007 -0.0134344 0.0112223 -5.68434e-14 -3.3 0 5.31729 -0.00643217 0.0121999 0.5 -2.15 -0.8 -1.82587e-06 5.12093e-05 -3.91022e-05 0 -7.75 -0.2 26.5664 1.7339 -1.38778 0 -3.8 -2.84217e-14 0.000167841 -0.00705547 0.00168206 0 -3.4 0 2.74034e-05 -0.00208708 0.00807023 0.75 -1.75 -1.85 -1.82587e-06 5.12093e-05 -3.91022e-05 0 -7.15 -1 33.2706 -1.99805 -0.841666 5.68434e-14 -3 2.84217e-14 3.53465e-05 -0.0192259 0.000858208 0 -2.35 0 4.1234e-05 -0.0145482 -0.00249608 8 2.84217e-14 -2.84217e-14 9.10443 -1.62346 100.67 0 -45 -1 -2.92349 1.74203 -58.2144 5.68434e-14 -41 -2 -3.61435 8.66095 -44.9978 -5.68434e-14 -7.5 12.5 -2.47452e-06 4.29031e-06 -2.80881e-05 0 -8.88178e-16 4 4.16462 -6.22381 45.3211 -8 1.42109e-14 0 4.03127 -3.13665 -8.99261 -5.68434e-14 -45 -1 -0.00442779 5.57474 0.87115 -5.68434e-14 -41 -2 -4.2478 -2.88977 3.74227 0 -7.5 12.5 3.24435e-05 -0.0021829 -0.000923338 0 0 4 4.82676 1.28553 21.5341 
